<svg xmlns="http://www.w3.org/2000/svg" width="900" height="240" viewBox="0 0 900 240" role="img" aria-label="Beem — beem-symfony">
  <defs>
    <linearGradient id="bg" x1="0" y1="0" x2="1" y2="1">
      <stop offset="0" stop-color="#0e0e22"/>
      <stop offset="1" stop-color="#15152f"/>
    </linearGradient>
    <radialGradient id="glow" cx="0.5" cy="0.1" r="0.9">
      <stop offset="0" stop-color="#6063FA" stop-opacity="0.28"/>
      <stop offset="1" stop-color="#6063FA" stop-opacity="0"/>
    </radialGradient>
  </defs>
  <rect width="900" height="240" rx="14" fill="url(#bg)"/>
  <rect width="900" height="240" rx="14" fill="url(#glow)"/>
  <rect x="0.5" y="0.5" width="899" height="239" rx="13.5" fill="none" stroke="#2a2a52" stroke-width="1"/>
  <svg x="414" y="30" width="72" height="92" viewBox="390 435 453 581" fill="#6063FA">
    <path d="M711.212524,435.918884 C735.537354,436.446320 756.907593,445.689240 776.350830,459.327820 C811.603699,484.056244 831.779602,518.567322 838.449158,560.747192 C842.654114,587.340149 838.439819,613.206970 827.583557,637.877686 C816.685974,662.642212 801.239075,684.128479 780.449524,701.543701 C773.957092,706.982300 766.873718,711.718018 760.019836,716.719360 C759.153320,717.351685 758.036316,717.640747 756.484741,718.335510 C756.221619,715.584229 756.065002,713.333435 755.783691,711.098328 C752.789612,687.311401 740.508301,670.912109 718.336670,661.001038 C683.727417,645.530029 649.575867,629.037170 615.178650,613.088806 C592.697388,602.665466 570.118103,592.453857 547.595032,582.120605 C525.374756,571.926331 503.215546,561.597412 480.944702,551.515015 C461.251587,542.599609 441.297272,534.250671 421.724243,525.083740 C402.394379,516.030579 391.293060,494.970764 394.282715,474.626801 C397.152863,455.096130 413.817017,438.714813 435.444122,434.981537 C525.105103,435.008820 613.964539,434.998108 702.824036,435.042511 C705.620300,435.043915 708.416382,435.613953 711.212524,435.918884 z"/>
    <path d="M755.918823,733.165466 C756.297791,728.207581 758.952515,730.162781 760.698914,731.389404 C766.418762,735.406860 772.214172,739.378174 777.534973,743.892273 C807.882019,769.638916 829.292053,801.044312 837.263489,840.571533 C842.607605,867.070618 839.388245,892.886292 830.059875,918.135376 C819.113831,947.763000 800.909241,971.989380 775.258850,990.172485 C752.775085,1006.110779 727.616577,1015.241272 699.676208,1015.261719 C629.528442,1015.313049 559.380737,1015.318237 489.233002,1015.304932 C472.574585,1015.301758 455.893982,1015.664124 439.263275,1014.943359 C417.987915,1014.021240 399.898102,999.566284 395.344940,980.984680 C390.068939,959.453003 398.825806,938.723206 418.515839,927.317688 C425.109558,923.498291 432.281372,920.669312 439.218781,917.452026 C481.460419,897.861694 523.729004,878.329407 565.952576,858.700317 C602.747009,841.595093 639.474670,824.346191 676.271118,807.245361 C691.646545,800.099731 707.433044,793.772095 722.479858,786.002197 C743.513367,775.140808 754.546204,757.266235 755.918823,733.165466 z"/>
  </svg>
  <text x="450" y="177" text-anchor="middle" font-family="ui-sans-serif, system-ui, -apple-system, 'Segoe UI', Helvetica, Arial, sans-serif" font-size="34" font-weight="700" fill="#f2f2fa">beem-symfony</text>
  <text x="450" y="207" text-anchor="middle" font-family="ui-sans-serif, system-ui, -apple-system, 'Segoe UI', Helvetica, Arial, sans-serif" font-size="16" fill="#9b9ec8">Symfony bundle for Beem — HTTP, Doctrine, Console and Messenger tracing</text>
</svg>
